<?xml version="1.0" encoding="iso-8859-1"?>
<!-- Generator: Adobe Illustrator 19.0.0, SVG Export Plug-In . SVG Version: 6.00 Build 0)  -->
<svg version="1.1" id="Layer_1" xmlns="http://www.w3.org/2000/svg" xmlns:xlink="http://www.w3.org/1999/xlink" x="0px" y="0px"
	 viewBox="0 0 512 512" style="enable-background:new 0 0 512 512;" xml:space="preserve">
<circle id="background_8_" style="fill:#EFC84A;" cx="256" cy="256" r="256"/>
<path style="fill:#368C7A;" d="M363.954,116.269H128.49c-8.962,0-16.295,7.333-16.295,16.295v255.022
	c0,8.962,7.333,16.295,16.295,16.295h255.02c8.962,0,16.296-7.333,16.296-16.295V152.119L363.954,116.269z"/>
<path style="fill:#2E7868;" d="M394.58,399.491L116.204,121.909c-0.287,0.331-0.559,0.678-0.822,1.032
	c-0.029,0.044-0.064,0.086-0.094,0.128c-0.236,0.325-0.456,0.661-0.668,1.005c-0.054,0.086-0.105,0.17-0.158,0.257
	c-0.187,0.315-0.361,0.638-0.527,0.968c-0.066,0.129-0.128,0.261-0.189,0.393c-0.143,0.301-0.276,0.607-0.401,0.916
	c-0.07,0.179-0.132,0.357-0.197,0.537c-0.102,0.282-0.2,0.564-0.284,0.854c-0.067,0.23-0.125,0.465-0.181,0.699
	c-0.063,0.252-0.13,0.504-0.181,0.761c-0.06,0.303-0.1,0.611-0.141,0.92c-0.028,0.201-0.065,0.399-0.085,0.604
	c-0.05,0.521-0.08,1.049-0.08,1.582v255.022c0,8.962,7.333,16.295,16.295,16.295h255.02
	C387.778,403.88,391.665,402.203,394.58,399.491z"/>
<path style="fill:#2E7868;" d="M170.858,112.196v87.992c0,8.963,7.332,16.295,16.293,16.295h137.697
	c8.961,0,16.293-7.332,16.293-16.295v-87.992C341.141,112.196,170.858,112.196,170.858,112.196z M320.774,186.339
	c0,4.479-3.665,8.146-8.148,8.146h-34.22c-4.48,0-8.147-3.667-8.147-8.146v-48.886c0-4.481,3.666-8.148,8.147-8.148h34.22
	c4.483,0,8.148,3.667,8.148,8.148V186.339z"/>
<path style="fill:#D5D9D9;" d="M170.858,108.121v87.994c0,8.962,7.332,16.295,16.293,16.295h137.697
	c8.961,0,16.293-7.333,16.293-16.295v-87.994H170.858z M320.774,182.264c0,4.481-3.665,8.147-8.148,8.147h-34.22
	c-4.48,0-8.147-3.666-8.147-8.147v-48.886c0-4.481,3.666-8.148,8.147-8.148h34.22c4.483,0,8.148,3.667,8.148,8.148V182.264z"/>
<path style="fill:#BCBFBF;" d="M170.858,108.121v87.994c0,8.962,7.332,16.295,16.293,16.295h137.697
	c8.961,0,16.293-7.333,16.293-16.295v-87.994H170.858z M320.774,182.264c0,4.481-3.665,8.147-8.148,8.147h-34.22
	c-4.48,0-8.147-3.666-8.147-8.147v-48.886c0-4.481,3.666-8.148,8.147-8.148h34.22c4.483,0,8.148,3.667,8.148,8.148V182.264z"/>
<path style="fill:#ECF0F0;" d="M325.661,267.814H187.969c-8.964,0-16.298,7.333-16.298,16.297v119.77h170.287V284.11
	C341.958,275.147,334.625,267.814,325.661,267.814z"/>
<g>
	<rect x="196.931" y="306.108" style="fill:#ADB0B0;" width="119.77" height="8.148"/>
</g>
<g>
	<rect x="196.931" y="332.995" style="fill:#ADB0B0;" width="99.401" height="8.148"/>
</g>
<g>
	<rect x="196.931" y="358.253" style="fill:#ADB0B0;" width="99.401" height="8.148"/>
</g>
<path style="opacity:0.1;fill:#5D5D5D;enable-background:new    ;" d="M170.858,108.121v87.994c0,8.962,7.332,16.295,16.293,16.295
	h104.29l-104.29-104.289H170.858z"/>
<polygon style="opacity:0.1;fill:#5D5D5D;enable-background:new    ;" points="171.671,403.88 282.48,403.88 171.671,293.072 "/>
<g>
</g>
<g>
</g>
<g>
</g>
<g>
</g>
<g>
</g>
<g>
</g>
<g>
</g>
<g>
</g>
<g>
</g>
<g>
</g>
<g>
</g>
<g>
</g>
<g>
</g>
<g>
</g>
<g>
</g>
</svg>
